<svg xmlns="http://www.w3.org/2000/svg"
     viewBox="0 0 24 24"
     width="24"
     height="24"
     fill="currentColor"
     role="img"
     aria-label="Yoga">

  <!-- Head -->
  <circle cx="12" cy="4" r="1.5"/>

  <!-- Torso -->
  <path d="M8.5 7
           C8.5 6 15.5 6 15.5 7
           L15.5 10
           C15.5 11 8.5 11 8.5 10
           Z"/>

  <!-- Left arm -->
  <path d="M8.5 8.5
           C6.5 9.5 5.5 11 5 12.5
           C4.8 13.2 6 13.6 6.4 13
           C7 12 7.8 11.2 9 10.8
           Z"/>

  <!-- Right arm -->
  <path d="M15.5 8.5
           C17.5 9.5 18.5 11 19 12.5
           C19.2 13.2 18 13.6 17.6 13
           C17 12 16.2 11.2 15 10.8
           Z"/>

  <!-- Hands -->
  <circle cx="6.3" cy="13.3" r="0.6"/>
  <circle cx="17.7" cy="13.3" r="0.6"/>

  <!-- Lotus legs -->
  <path d="M6 15
           C8 12.5 10.5 12 12 12
           C13.5 12 16 12.5 18 15
           C18.8 16 17.8 18 16 18
           C14.5 18 13.5 17 12 16
           C10.5 17 9.5 18 8 18
           C6.2 18 5.2 16 6 15
           Z"/>
</svg>
