<svg xmlns="http://www.w3.org/2000/svg" viewBox="0 0 24 24" fill="currentColor"><path d="M12 6c-1.93 0-3.5 1.57-3.5 3.5S10.07 13 12 13s3.5-1.57 3.5-3.5S13.93 6 12 6zm0 5c-.83 0-1.5-.67-1.5-1.5S11.17 8 12 8s1.5.67 1.5 1.5S12.83 11 12 11zm9 3.5c0-.83-.67-1.5-1.5-1.5h-2.1c-1.24-.03-2.31-.76-2.9-1.85-.22-.41-.53-.78-.96-1-1.01-.52-2.17-.5-3.13.04-.43.25-.8.61-1.07 1.05-.62 1.07-1.74 1.77-3.03 1.76H4.5c-.83 0-1.5.67-1.5 1.5V16c0 .55.45 1 1 1 1.25.03 2.37.69 2.97 1.76.22.4.52.74.91.97.45.28.97.41 1.48.38 1.13-.07 2.11-.7 2.64-1.68l.99-1.84.99 1.84c.54 1.01 1.57 1.64 2.72 1.69.57.02 1.15-.14 1.64-.46.38-.24.7-.58.91-.98.6-1.07 1.72-1.73 2.97-1.76.55 0 1-.45 1-1v-1.42z"/></svg>
